<svg xmlns="http://www.w3.org/2000/svg" xmlns:xlink="http://www.w3.org/1999/xlink" viewBox="0 0 1921.44 577.03"><defs><style>.cls-1{isolation:isolate;}.cls-2{fill:#fff;}.cls-3{fill:url(#linear-gradient);}.cls-4,.cls-8{opacity:0.5;}.cls-4,.cls-7,.cls-8{mix-blend-mode:screen;}.cls-4{fill:url(#radial-gradient);}.cls-5{fill:url(#radial-gradient-2);}.cls-6{opacity:0.4;mix-blend-mode:multiply;fill:url(#radial-gradient-3);}.cls-7{opacity:0.3;fill:url(#radial-gradient-4);}.cls-8{fill:url(#radial-gradient-5);}</style><linearGradient id="linear-gradient" x1="575.26" y1="-368.63" x2="309.08" y2="-862.97" gradientTransform="translate(539.06 816.36)" gradientUnits="userSpaceOnUse"><stop offset="0" stop-color="#402e99"/><stop offset="1" stop-color="#2e3192"/></linearGradient><radialGradient id="radial-gradient" cx="397.69" cy="172.27" r="90.23" gradientUnits="userSpaceOnUse"><stop offset="0.59" stop-color="#2982a2"/><stop offset="0.59" stop-color="#28809f"/><stop offset="0.66" stop-color="#1c596f"/><stop offset="0.73" stop-color="#123947"/><stop offset="0.8" stop-color="#0a2028"/><stop offset="0.87" stop-color="#050e12"/><stop offset="0.94" stop-color="#010405"/><stop offset="0.99"/></radialGradient><radialGradient id="radial-gradient-2" cx="392.53" cy="163.01" fx="381.20625217528914" r="65.82" gradientUnits="userSpaceOnUse"><stop offset="0" stop-color="#fff"/><stop offset="0.67" stop-color="#ededed"/><stop offset="1" stop-color="#e2e2e2"/></radialGradient><radialGradient id="radial-gradient-3" cx="401.42" cy="174.14" fx="401.41505292848615" r="57.26" xlink:href="#radial-gradient-2"/><radialGradient id="radial-gradient-4" cx="371.21" cy="210.18" fx="371.20902713702435" r="42.49" gradientTransform="translate(38.99 -76.56) rotate(4.58)" xlink:href="#radial-gradient-2"/><radialGradient id="radial-gradient-5" cx="380.63" cy="145.6" fx="380.6279618665958" r="27.15" xlink:href="#radial-gradient-2"/></defs><title>Asset 1</title><g class="cls-1"><g id="Layer_2" data-name="Layer 2"><g id="Layer_1-2" data-name="Layer 1"><g id="SVGID"><g id="g473"><path id="path471" class="cls-2" d="M.84,2.23v323.4c72.4,80.9,403.2-55.9,297.7,52.5-81.8,84-12.7,206.7,216.1,116.9,211.8-83.2,402.8,14.6,443.5,82h26.5c4.1-105,84.7-128.8,247.7-74,128.5,43.2,284.5-47.3,342.7-109.6,45.1-48.2,82.8-86.6,116.4-48.8,53,59.7,152.5,56.3,230,6.5V2.23Z"/></g></g><rect id="rect217" class="cls-2" x="0.84" y="2.23" width="1920" height="574"/><g id="g464"><path id="path369" class="cls-3" d="M0,0V323.4c72.4,80.9,287.24-63.29,181.75,45.1h0c9.05,16.07,30.3-7.27,64,18.66,12,9.26,2,38.31,19.26,46.52,13.25,6.31,56.87,3.72,72.3,9.48,16.22,6.05,8,65.05,19.25,50.19,60.24-79.25,108.7-35.87,157.18-.61,206.66-77.82,309.56-71.79,359-5,1.93,2.61,29.79,12.44,45.93,10.31a34.48,34.48,0,0,1,36,20.11l11.81,26.43a7.54,7.54,0,0,0,11.93,2.53c10.82-9.71,25.24-30.88,26.09-37.7,11.46-91.52,72.5-60.62,227-8.67,66.86,22.48,99.48-58.91,163.58-86,59.09-25,151.2,6.3,179.12-23.58,45.1-48.2,82.8-86.6,116.4-48.8,28.85,32.5,60.89-33.86,106.26-36.07,38-1.84,88.43,65.26,123.74,42.57V0Z"/></g><path class="cls-4" d="M487.9,170.55A90.23,90.23,0,0,1,396,262.49c-48.24-.9-87.61-40.27-88.5-88.51A90.23,90.23,0,0,1,399.4,82.06C447.64,83,487,122.31,487.9,170.55Z"/><path class="cls-5" d="M448.74,198.16a57.25,57.25,0,1,1-23.59-77.46A57.26,57.26,0,0,1,448.74,198.16Z"/><path class="cls-6" d="M386.35,118.88a51,51,0,0,1,50.71,16.22c18.43,21.32,20.23,56.36-1.09,74.79s-57.7,13.27-76.13-8a51,51,0,0,1,4.69-71.5l-.56.48a57.22,57.22,0,1,0,22.38-11.94Z"/><path class="cls-7" d="M428,136.3c13.23,18,7.91,44.4-11.86,58.9s-46.53,11.66-59.75-6.36-7.91-44.4,11.87-58.9S414.83,118.28,428,136.3Z"/><path class="cls-8" d="M404.29,125.15c8,9.31,4,26-9.1,37.3S365,175.36,357,166.06s-4-26,9.09-37.31S396.25,115.85,404.29,125.15Z"/></g></g></g></svg>