<svg xmlns="http://www.w3.org/2000/svg" xmlns:svg="http://www.w3.org/2000/svg" id="Layer_1" width="1920" height="574" x="0" y="0" enable-background="new 0 0 1920 574" version="1.1" viewBox="0 0 1920 574" xml:space="preserve"><metadata id="metadata418"/><style id="style215" type="text/css">.st0{fill:#fff}.st5{fill:#009ee2}.st15,.st16{opacity:.15;fill:#eee;enable-background:new}.st16{opacity:.3;fill:#402e99}.st17{opacity:.15}.st18,.st19{fill:#eee}.st19{opacity:.2}.st19,.st20,.st24{enable-background:new}.st20{opacity:.3;fill:#2e3192}.st24{opacity:.9;fill:#e6ebf8}</style><rect id="rect217" width="1920" height="574" class="st0"/><g id="g464"><linearGradient id="path355_1_" x1="164.049" x2="1100.173" y1="119.211" y2="119.211" gradientTransform="matrix(1 0 0 -1 0 574)" gradientUnits="userSpaceOnUse"><stop id="stop219" offset="0" stop-color="#5708a8" stop-opacity="0"/><stop id="stop221" offset="1" stop-color="#0082a8"/></linearGradient><path id="path355" fill="url(#path355_1_)" d="M806.5,342c0,0-513.7,35.7-523.3,49.8c-93.4,136.3,51,217.6,178.9,153.5 c172.4-86.5,313.9-104.5,457-10.2C1062.2,629.3,806.5,342,806.5,342z" enable-background="new" opacity=".2"/><linearGradient id="path362_1_" x1="1144.601" x2="2053.592" y1="206.003" y2="206.003" gradientTransform="matrix(1 0 0 -1 0 574)" gradientUnits="userSpaceOnUse"><stop id="stop225" offset="0" stop-color="#0082a8"/><stop id="stop227" offset="1" stop-color="#5708a8" stop-opacity="0"/></linearGradient><path id="path362" fill="url(#path362_1_)" d="M1920,222.3c-112.5-18.9-688.7,278.9-688.7,278.9c241.4,65.5,337.4-133.4,455.3-91.5 c69.4,24.7,119.3,34.2,233.3-51.9V222.3H1920z" enable-background="new" opacity=".2"/><linearGradient id="path369_1_" x1="1114.552" x2="848.226" y1="125.831" y2="620.437" gradientTransform="matrix(1 0 0 -1 0 574)" gradientUnits="userSpaceOnUse"><stop id="stop231" offset="0" stop-color="#402e99"/><stop id="stop233" offset="1" stop-color="#2e3192"/></linearGradient><path id="path369" fill="url(#path369_1_)" d="M0,0v323.4c72.4,80.9,403.2-55.9,297.7,52.5c-81.8,84-12.7,206.7,216.1,116.9 c211.8-83.2,402.8,14.6,443.5,82h26.5c4.1-105,84.7-128.8,247.7-74C1360,544,1516,453.5,1574.2,391.2 c45.1-48.2,82.8-86.6,116.4-48.8c53,59.7,152.5,56.3,230,6.5V0H0z"/><radialGradient id="path376_1_" cx="947.642" cy="422.22" r="713.476" gradientTransform="matrix(1.0004 1.699471e-02 6.108901e-03 -0.3592 3.4255 678.9017)" gradientUnits="userSpaceOnUse"><stop id="stop237" offset="0" stop-color="#0082a8"/><stop id="stop239" offset="1" stop-color="#5708a8" stop-opacity="0"/></radialGradient><path id="path376" fill="url(#path376_1_)" d="M0,0v323.4c72.4,80.9,403.2-55.9,297.7,52.5c-81.8,84-12.7,206.7,216.1,116.9 c211.8-83.2,402.8,14.6,443.5,82h26.5c4.1-105,84.7-128.8,247.7-74C1360,544,1516,453.5,1574.2,391.2 c45.1-48.2,82.8-86.6,116.4-48.8c53,59.7,152.5,56.3,230,6.5V0H0z"/><g id="g462"><g id="g460"><path id="path378" d="M802.2,90.2c2.4,0,2.4-3.6,0-3.6S799.8,90.2,802.2,90.2" class="st5"/><path id="path380" d="M485.1,161.5c2.4,0,2.4-3.6,0-3.6C482.8,157.9,482.8,161.5,485.1,161.5" class="st5"/><path id="path382" d="M1290.3,108.7c0.9,0,0.9-1.4,0-1.4C1289.4,107.3,1289.4,108.7,1290.3,108.7" class="st5"/><path id="path384" d="M1288,51.6c2.6,0,2.6-3.9,0-3.9C1285.4,47.7,1285.4,51.6,1288,51.6" class="st5"/><path id="path386" d="M1226.3,110.3c1,0,1-1.5,0-1.5S1225.2,110.3,1226.3,110.3" class="st5"/><path id="path388" d="M1068,50c2.8,0,2.8-4.2,0-4.2S1065.2,50,1068,50" class="st5"/><path id="path390" d="M590.9,36.2c0.2,0,0.2-0.3,0-0.3C590.6,35.9,590.6,36.2,590.9,36.2" class="st5"/><path id="path392" d="M563.1,146.6c1.8,0,1.8-2.7,0-2.7C561.3,143.8,561.3,146.6,563.1,146.6" class="st5"/><path id="path394" d="M960.5,26.9c0,0.4,0,0.8,0.1,1.1c0,0.8,1.2,0.8,1.2,0c0-0.4,0-0.8,0.1-1.1 C961.9,26.1,960.5,26.1,960.5,26.9" class="st5"/><path id="path396" d="M635.4,36.5c1.4,0,1.4-2.2,0-2.2S634,36.5,635.4,36.5" class="st5"/><path id="path398" d="M131.8,37.9c2.1,0,2.1-3.3,0-3.3C129.7,34.7,129.7,37.9,131.8,37.9" class="st5"/><path id="path400" d="M655.1,77.4c0.1-0.4,0.2-0.7,0.4-1.1s-0.6-0.6-0.7-0.2c-0.1,0.4-0.2,0.7-0.2,1.1 C654.4,77.6,655,77.7,655.1,77.4" class="st5"/><path id="path402" d="M1484.2,217.5c2.4,0,2.4-3.6,0-3.6C1481.9,213.9,1481.9,217.5,1484.2,217.5" class="st5"/><path id="path404" d="M1167.2,288.9c2.4,0,2.4-3.6,0-3.6C1164.8,285.3,1164.8,288.9,1167.2,288.9" class="st5"/><path id="path406" d="M1908.3,237.7c1,0,1-1.5,0-1.5C1907.3,236.1,1907.3,237.7,1908.3,237.7" class="st5"/><path id="path408" d="M1769.8,168.3c2.8,0,2.8-4.2,0-4.2C1767,164,1767,168.3,1769.8,168.3" class="st5"/><path id="path410" d="M1272.9,163.5c0.2,0,0.2-0.3,0-0.3C1272.7,163.2,1272.7,163.5,1272.9,163.5" class="st5"/><path id="path412" d="M1245.1,273.9c1.8,0,1.8-2.7,0-2.7C1243.3,271.2,1243.3,273.9,1245.1,273.9" class="st5"/><path id="path414" d="M1642.6,169.4c0,0.4,0,0.8,0.1,1.1c0,0.8,1.2,0.8,1.2,0c0-0.4,0-0.8,0.1-1.1 C1644,168.6,1642.5,168.6,1642.6,169.4" class="st5"/><path id="path416" d="M1317.5,163.8c1.4,0,1.4-2.2,0-2.2C1316,161.6,1316,163.8,1317.5,163.8" class="st5"/><path id="path418" d="M1337.1,204.7c0.1-0.4,0.2-0.7,0.4-1.1c0.2-0.4-0.6-0.6-0.7-0.2c-0.1,0.4-0.2,0.7-0.2,1.1 C1336.5,204.9,1337,205.1,1337.1,204.7" class="st5"/><path id="path420" d="M1784.5,34.6c2.4,0,2.4-3.6,0-3.6C1782.2,31,1782.2,34.6,1784.5,34.6" class="st5"/><path id="path422" d="M1497.8,106c2.4,0,2.4-3.6,0-3.6S1495.4,106,1497.8,106" class="st5"/><path id="path424" d="M1575.8,91c1.8,0,1.8-2.7,0-2.7S1574,91,1575.8,91" class="st5"/><path id="path426" d="M1667.8,21.8c0.1-0.4,0.2-0.7,0.4-1.1c0.2-0.4-0.6-0.6-0.7-0.2s-0.2,0.7-0.2,1.1 C1667.1,22,1667.6,22.2,1667.8,21.8" class="st5"/><path id="path428" d="M91,150.8c-2.4,0-2.4-3.6,0-3.6C93.3,147.2,93.3,150.8,91,150.8" class="st5"/><path id="path430" d="M408,222.2c-2.4,0-2.4-3.6,0-3.6C410.4,218.6,410.4,222.2,408,222.2" class="st5"/><path id="path432" d="M302.3,96.8c-0.2,0-0.2-0.3,0-0.3S302.5,96.8,302.3,96.8" class="st5"/><path id="path434" d="M330.1,207.2c-1.8,0-1.8-2.7,0-2.7S331.9,207.2,330.1,207.2" class="st5"/><path id="path436" d="M257.7,97.1c-1.4,0-1.4-2.2,0-2.2C259.2,95,259.2,97.1,257.7,97.1" class="st5"/><path id="path438" d="M238.1,138c-0.1-0.4-0.2-0.7-0.4-1.1c-0.2-0.4,0.6-0.6,0.7-0.2c0.1,0.4,0.2,0.7,0.2,1.1 C238.7,138.2,238.2,138.4,238.1,138" class="st5"/><path id="path440" d="M907,440.6c-1.7,0-1.7-2.6,0-2.6S908.7,440.6,907,440.6" class="st5"/><path id="path442" d="M559.4,453.8c-0.6,0-0.6-1,0-1S560,453.8,559.4,453.8" class="st5"/><path id="path444" d="M561,413.1c-1.8,0-1.8-2.8,0-2.8C562.9,410.3,562.9,413.1,561,413.1" class="st5"/><path id="path446" d="M605,455c-0.7,0-0.7-1.1,0-1.1S605.7,455,605,455" class="st5"/><path id="path448" d="M717.7,412c-2,0-2-3,0-3S719.7,412,717.7,412" class="st5"/><path id="path450" d="M1057.5,402.2c-0.2,0-0.2-0.2,0-0.2S1057.7,402.2,1057.5,402.2" class="st5"/><path id="path452" d="M794.3,395.6c0,0.3,0,0.5,0,0.8c0,0.5-0.8,0.5-0.9,0c0-0.3,0-0.5,0-0.8 C793.3,395,794.3,395,794.3,395.6" class="st5"/><path id="path454" d="M1025.8,402.4c-1,0-1-1.6,0-1.6S1026.8,402.4,1025.8,402.4" class="st5"/><path id="path456" d="M1011.8,431.5c-0.1-0.3-0.2-0.5-0.3-0.8s0.4-0.5,0.5-0.1c0.1,0.3,0.1,0.5,0.2,0.8 C1012.3,431.7,1011.9,431.8,1011.8,431.5" class="st5"/><path id="path458" d="M292,71.6c2,0,2-3.1,0-3.1C289.9,68.5,289.9,71.6,292,71.6" class="st5"/></g></g></g><defs id="defs290"><filter id="Adobe_OpacityMaskFilter" width="2056" height="647.5" x="-88" y="-49.6" filterUnits="userSpaceOnUse"><feColorMatrix id="feColorMatrix287" type="matrix" values="1 0 0 0 0 0 1 0 0 0 0 0 1 0 0 0 0 0 1 0"/></filter></defs><mask id="SVGID_1_" width="2056" height="647.5" x="-88" y="-49.6" maskUnits="userSpaceOnUse"><g id="g473_1_" filter="url(#Adobe_OpacityMaskFilter)"><path id="path471_1_" d="M0,0v323.4c72.4,80.9,403.2-55.9,297.7,52.5c-81.8,84-12.7,206.7,216.1,116.9 c211.8-83.2,402.8,14.6,443.5,82h26.5c4.1-105,84.7-128.8,247.7-74C1360,544,1516,453.5,1574.2,391.2 c45.1-48.2,82.8-86.6,116.4-48.8c53,59.7,152.5,56.3,230,6.5V0H0z" class="st0"/></g></mask><g id="g669" mask="url(#SVGID_1_)"><g id="g506"><linearGradient id="path481_1_" x1="69.318" x2="369.379" y1="-19.401" y2="353.372" gradientTransform="matrix(1,0,0,-1,0,574)" gradientUnits="userSpaceOnUse"><stop id="stop295" offset="0" stop-color="#5708a8" stop-opacity="0"/><stop id="stop297" offset="1" stop-color="#0082a8"/></linearGradient><path id="path481" fill="url(#path481_1_)" d="m 392.9,416.6 c 0,100.1 -81.2,181.3 -181.3,181.3 -100.1,0 -181.2,-81.1 -181.2,-181.3 0,-100.2 81.2,-181.3 181.3,-181.3 45.8,0 87.5,17 119.4,44.9 37.9,33.3 61.8,82.1 61.8,136.4 z"/><g id="g490"><linearGradient id="path488_1_" x1="228.949" x2="194.248" y1="-3.194" y2="317.914" gradientTransform="matrix(1,0,0,-1,0,574)" gradientUnits="userSpaceOnUse"><stop id="stop301" offset="0" stop-color="#5708a8" stop-opacity="0"/><stop id="stop303" offset="1" stop-color="#0082a8"/></linearGradient><path id="path488" fill="none" stroke="url(#path488_1_)" stroke-dasharray="67.08 4.791 1.917 4.791 33.54 4.791" stroke-miterlimit="10" stroke-width="1.999" d="M 380.1,248.1 C 409.3,277.3 357.6,376.5 264.5,469.6 171.5,562.7 72.4,614.4 43.1,585.2 13.9,556 65.6,456.8 158.7,363.7 c 42.5,-42.5 86.3,-76.4 124.2,-97.9 44.9,-25.6 81.4,-33.6 97.2,-17.7 z"/></g><linearGradient id="path497_1_" x1="77.062" x2="338.922" y1="-18.172" y2="307.141" gradientTransform="matrix(1,0,0,-1,0,574)" gradientUnits="userSpaceOnUse"><stop id="stop308" offset="0" stop-color="#5708a8" stop-opacity="0"/><stop id="stop310" offset="1" stop-color="#0082a8"/></linearGradient><path id="path497" fill="url(#path497_1_)" d="m 392.9,416.6 c 0,100.1 -81.2,181.3 -181.3,181.3 -100.1,0 -181.2,-81.1 -181.2,-181.3 0,-137 198.3,-183.3 179.3,-108.4 -11.2,44.4 27.1,131.5 92,78 39.9,-32.9 91.2,-23.9 91.2,30.4 z"/><linearGradient id="path504_1_" x1="83.14" x2="308.35" y1="-20.055" y2="259.729" gradientTransform="matrix(1,0,0,-1,0,574)" gradientUnits="userSpaceOnUse"><stop id="stop314" offset="0" stop-color="#5708a8" stop-opacity="0"/><stop id="stop316" offset="1" stop-color="#0082a8"/></linearGradient><path id="path504" fill="url(#path504_1_)" d="m 367.6,437.2 c 24.2,97.1 -55.8,160.7 -155.9,160.7 -100.1,0 -181.3,-71.2 -181.3,-171.3 0,-119 155.9,-151.7 122.3,-72.4 -17.9,42.1 68,153.9 119,104 26.4,-26 85.5,-62.4 95.9,-21 z"/></g><g id="g529"><linearGradient id="circle513_1_" x1="-5609.794" x2="-5442.665" y1="9830.989" y2="10038.618" gradientTransform="matrix(-1,0,0,1,-3785.1665,-9878.0156)" gradientUnits="userSpaceOnUse"><stop id="stop321" offset="0" stop-color="#5708a8" stop-opacity="0"/><stop id="stop323" offset="1" stop-color="#0082a8"/></linearGradient><circle id="circle513" cx="1745.4" cy="51.4" r="101" fill="url(#circle513_1_)"/><linearGradient id="path520_1_" x1="-5605.239" x2="-5459.917" y1="9831.582" y2="10012.117" gradientTransform="matrix(-1,0,0,1,-3785.1665,-9878.0156)" gradientUnits="userSpaceOnUse"><stop id="stop327" offset="0" stop-color="#5708a8" stop-opacity="0"/><stop id="stop329" offset="1" stop-color="#0082a8"/></linearGradient><path id="path520" fill="url(#path520_1_)" d="m 1644.4,51.4 c 0,-55.8 45.2,-101 101,-101 55.8,0 101,45.2 101,101 0,55.8 -50.7,77.9 -89.3,37.4 -61,-63.9 -112.7,18.4 -112.7,-37.4 z"/><linearGradient id="path527_1_" x1="-5601.158" x2="-5480.622" y1="9833.138" y2="9982.882" gradientTransform="matrix(-1,0,0,1,-3785.1665,-9878.0156)" gradientUnits="userSpaceOnUse"><stop id="stop333" offset="0" stop-color="#5708a8" stop-opacity="0"/><stop id="stop335" offset="1" stop-color="#0082a8"/></linearGradient><path id="path527" fill="url(#path527_1_)" d="m 1659.6,34.9 c -14,-38.5 30,-84.4 85.8,-84.4 55.8,0 101,45.2 101,101 0,55.8 -22.5,-8.8 -66.8,-43.1 -60,-46.5 -102.6,74.4 -120,26.5 z"/></g><g id="g551"><path id="path531" fill="#eee" d="m 1368.2,436.1 -12.5,-0.5 13.7,-0.8 8.3,10.8 c 17.9,-14.6 42.4,-26.9 73.5,-34.3 3,-20 3.2,-69.7 -5.9,-91.9 -40.8,11.2 -97.5,64.2 -116.6,101.9 1.1,20.1 29.2,44.7 29.2,44.7 4.6,-6.1 10.2,-12.1 16.7,-17.7 z" class="st15" enable-background="new" opacity=".15"/><path id="path533" fill="#402e99" d="m 1436.6,331.2 c 1.4,-0.7 4,0.3 4.3,2 2.3,13.3 5,41 2.9,67.2 -0.1,1.7 -1.1,3.3 -2.7,4 0,0 -0.1,0 -0.1,0.1 -3,1.2 -4.4,-1.1 -4.3,-4.4 0.7,-16.8 -2.8,-47.3 -3.7,-62.5 -0.2,-2.7 1.2,-5.2 3.6,-6.4 0,0.1 0,0.1 0,0 z" class="st16" enable-background="new" opacity=".3"/><path id="path535" fill="#402e99" d="m 1424.2,338.8 c 3,16.7 7.2,59 7,66.5 -10,2.2 -22,9 -22,9 0,0 -22,-44 -24.5,-46.5 11,-9.5 31,-24.5 39.5,-29 z" class="st16" enable-background="new" opacity=".3"/><path id="path537" fill="#402e99" d="m 1392.7,392 c -1.3,1.3 -25.8,23.2 -25.8,23.2 0,0 -11.3,-14.7 -13.3,-16 3.7,-3.3 26.5,-26.9 28.2,-27.9 4.4,7.2 10.9,20.7 10.9,20.7 z" class="st16" enable-background="new" opacity=".3"/><path id="path539" fill="#402e99" d="m 1363.7,417.7 c -1.3,1.3 -18.3,18.5 -18.3,18.5 0,0 -8.2,-8.7 -9.2,-15.3 4.8,-6.2 12,-15.2 15.3,-18.5 3.4,4 12.2,15.3 12.2,15.3 z" class="st16" enable-background="new" opacity=".3"/><g id="g543" class="st17" opacity=".15"><path id="path541" fill="#eee" d="m 1328.7,421.2 c 0.4,4.5 2,8.8 4,12.8 2.1,4 4.6,7.8 7.3,11.4 2.7,3.6 5.6,7 8.7,10.3 3.1,3.3 6.3,6.5 9.6,9.5 l -1.2,0.1 c 5.6,-7.4 12.1,-14 19.2,-20 7.1,-5.9 14.9,-11 23,-15.4 8.1,-4.5 16.6,-8.1 25.2,-11.3 8.7,-3.2 17.6,-5.5 26.5,-7.6 v 0.1 c -17.8,4.4 -35.3,10.6 -51.4,19.5 -8,4.5 -15.7,9.6 -22.8,15.4 -7.1,5.8 -13.6,12.4 -19.1,19.7 l -0.1,0.1 -0.1,-0.1 c -3.4,-3 -6.6,-6.3 -9.6,-9.6 -3.1,-3.3 -6,-6.8 -8.7,-10.5 -2.7,-3.7 -5.1,-7.5 -7.1,-11.6 -2,-4.1 -3.5,-8.5 -3.8,-13 z" class="st18"/></g><path id="path545" fill="#eee" d="M 1390.7,460.8 1370.9,437 c -1.3,-1.5 -3.2,-2.3 -5.2,-2.2 l -10.8,0.8 27.6,-25.9 c 1.8,-1.7 4.6,-1.6 6.4,0.2 l 28.9,28.9 c 2,2 1.8,5.2 -0.4,6.9 l -20.2,15.9 c -2.1,1.4 -4.9,1.1 -6.5,-0.8 z" class="st19" enable-background="new" opacity=".2"/><g id="g549" class="st17" opacity=".15"><path id="path547" fill="#eee" d="m 1417.3,445.6 -12.5,9.9 -6.3,4.9 c -0.5,0.4 -1,0.8 -1.6,1.2 -0.5,0.4 -1.2,0.7 -1.9,0.8 -1.3,0.3 -2.8,-0.1 -3.8,-0.9 -0.5,-0.4 -0.9,-1 -1.4,-1.5 l -1.3,-1.5 -2.5,-3.1 -5.1,-6.1 -10.2,-12.3 0.1,-0.1 c 1.8,1.9 3.6,3.9 5.4,5.9 l 5.3,6 c 1.8,2 3.5,4 5.2,6.1 l 2.6,3 1.3,1.5 0.6,0.8 c 0.2,0.2 0.4,0.4 0.6,0.6 0.8,0.7 2,1 3,0.8 0.5,-0.1 1,-0.3 1.5,-0.6 0.5,-0.3 1,-0.8 1.6,-1.2 2.1,-1.6 4.2,-3.3 6.3,-4.8 l 6.4,-4.7 c 2.3,-1.7 4.5,-3.3 6.7,-4.7 z" class="st18"/></g></g><g id="g573"><path id="path553" fill="#eee" d="m 129.6,175 -35.9,-0.8 34.6,-4 C 122.9,150.3 113.6,123 100.3,109.5 45.4,94.8 -49.9,111.9 -88,153.6 -68.3,189 -23.2,228.2 18,254.5 58,207 96.3,192.3 133.8,193.8 c 0,-0.1 -1.4,-7.8 -4.2,-18.8 z" class="st15" enable-background="new" opacity=".15"/><path id="path555" fill="#2e3192" d="m -65.8,160.6 c -4.4,-2.9 -3.9,-9.7 1,-11.9 81.5,-37.4 134.1,-31.2 149.4,-31.7 2.4,-0.1 4.5,1.4 5.2,3.7 v 0 c 0.9,3.2 -1.2,6.4 -4.5,6.7 -20.9,1.9 -82.6,1.9 -144,33.4 -2.2,1.1 -4.8,1.2 -7,-0.1 0,0 0,-0.1 -0.1,-0.1 z" class="st20" enable-background="new" opacity=".3"/><path id="path557" fill="#2e3192" d="m -60.3,168.3 c 59,-26 131,-32 131,-32 0,0 -10,13.5 -1,30.5 -30,3.5 -89,39.5 -89,39.5 z" class="st20" enable-background="new" opacity=".3"/><path id="path559" fill="#2e3192" d="m 57.7,200.7 c 8.6,-5.1 18,-9.8 27.5,-12.8 -8,-5 -15,-17 -15,-17 -6.4,1.9 -18.2,6.3 -28.5,11.5 z" class="st20" enable-background="new" opacity=".3"/><path id="path561" fill="#2e3192" d="m 35.7,184.3 c -22.2,10.2 -48.2,26 -48.2,26 l 28.7,22 c 0,0 17.9,-16.6 38.2,-29.7 z" class="st20" enable-background="new" opacity=".3"/><g id="g565" class="st17" opacity=".15"><path id="path563" fill="#eee" d="m 100.3,109.5 c 2.7,2.7 5,5.8 7.1,9 2.1,3.2 4,6.5 5.7,9.9 3.4,6.8 6.3,13.9 8.9,21.1 2.5,7.2 4.8,14.5 6.7,21.9 2,7.4 3.7,14.8 5.2,22.3 v 0.1 h -0.1 c -11.3,-0.4 -22.7,0.7 -33.6,3.5 -0.7,0.2 -1.4,0.3 -2.1,0.5 l -2,0.6 -4.1,1.2 c -2.7,0.9 -5.3,2 -8,2.9 -2.6,1.2 -5.2,2.3 -7.7,3.5 -2.5,1.3 -5,2.6 -7.5,4 -9.8,5.7 -18.9,12.4 -27.3,20 -8.4,7.6 -16.2,15.8 -23.6,24.4 l -0.1,-0.1 c 7.2,-8.7 14.9,-17.1 23.2,-24.8 8.4,-7.7 17.5,-14.6 27.3,-20.3 2.5,-1.4 5,-2.7 7.5,-4.1 2.6,-1.2 5.2,-2.4 7.8,-3.6 2.7,-1 5.3,-2.1 8,-3 l 4.1,-1.3 2,-0.6 c 0.7,-0.2 1.4,-0.3 2.1,-0.5 11,-2.8 22.5,-3.9 33.9,-3.4 l -0.9,1 c -1.4,-7.5 -3.2,-14.9 -5.1,-22.3 -1.9,-7.4 -4.1,-14.7 -6.5,-21.9 -1.2,-3.6 -2.6,-7.2 -4,-10.7 -1.4,-3.5 -3,-7 -4.6,-10.4 -1.7,-3.4 -3.5,-6.8 -5.5,-10 -2,-3 -4.2,-6.1 -6.8,-8.9 z" class="st18"/></g><path id="path567" fill="#eee" d="m 97.2,173.8 c 0,0 35.8,-4.9 53,-5.3 17.2,-0.4 9.7,-25.6 -6,-21.8 -6.4,-19.3 -39.7,-27.1 -49.5,-6.7 -23.7,-5.4 -28.5,36.9 2.5,33.8 z" class="st15" enable-background="new" opacity=".15"/><g id="g571" class="st17" opacity=".15"><path id="path569" fill="#eee" d="m 97.2,173.8 11.3,-1.9 c 3.8,-0.5 7.6,-1.1 11.4,-1.6 7.6,-1 15.2,-1.7 22.9,-2.3 1.9,-0.1 3.8,-0.2 5.8,-0.3 2,-0.1 3.7,-0.1 5.4,-0.6 1.7,-0.5 3.1,-1.6 4.1,-3 0.4,-0.7 0.8,-1.5 1,-2.4 0.1,-0.4 0.2,-0.9 0.3,-1.3 0,-0.4 0.1,-0.9 0.1,-1.3 -0.1,-3.6 -1.9,-7.2 -4.6,-9.6 -1.4,-1.2 -3.1,-2.1 -4.9,-2.6 -1.8,-0.5 -3.8,-0.5 -5.6,-0.1 v -0.1 c 1.9,-0.5 3.8,-0.5 5.7,-0.1 1.9,0.4 3.6,1.3 5.1,2.5 3,2.4 4.9,6.1 5.1,10 0.1,1.9 -0.3,3.9 -1.4,5.5 -1.1,1.6 -2.7,2.8 -4.5,3.4 -1.8,0.6 -3.8,0.7 -5.7,0.7 -1.9,0.1 -3.8,0.2 -5.7,0.3 -7.6,0.5 -15.2,1.3 -22.8,2.1 -7.9,0.9 -15.4,1.8 -23,2.7 z" class="st18"/></g></g><g id="g597"><path id="path575" fill="#eee" d="m 413.1,36.3 c -33.5,2 -84.2,14.2 -109.7,31.8 10.6,29.6 44.3,61.1 79.1,81.2 l 11.6,-11.9 -6.4,14.7 c 15.2,8.5 28.5,13.8 42.1,16.8 23.5,-7.7 50.8,-47 50.8,-47 -28.5,-12.7 -59.7,-41.5 -67.5,-85.6 z" class="st15" enable-background="new" opacity=".15"/><path id="path577" fill="#2e3192" d="m 324.9,69.3 c 17.5,-6.4 55.6,-17.7 72.6,-21.2 2.5,-0.5 5,1 5.8,3.4 v 0.1 c 0.9,2.7 -0.7,5.6 -3.5,6.4 -14.7,3.9 -55.9,15 -70.3,22.1 -2.6,1.3 -5.8,0.5 -7.5,-2 -0.1,-0.1 -0.1,-0.2 -0.2,-0.3 -1.8,-3 -0.4,-7.2 3.1,-8.5 z" class="st20" enable-background="new" opacity=".3"/><path id="path579" fill="#2e3192" d="m 331.6,86 c 12,-5.3 69,-24.3 73.3,-24.7 2,5.3 14,26 16,27.3 -5.3,3.3 -33,16.3 -35.7,19 l -2.2,-2.7 c -7,-8.8 -18.2,-13.2 -29.4,-11.6 -6.7,0.9 -12.8,2 -13.4,2.7 -3.6,-3.6 -8.6,-10 -8.6,-10 z" class="st20" enable-background="new" opacity=".3"/><path id="path581" fill="#2e3192" d="m 422,91.4 c 3,4.3 27.8,26.7 40.2,33.7 -4.7,8.3 -29,28.7 -31.3,30.3 -13.3,-2.9 -29,-12 -29,-12 l 6.7,-7 -19,-25.2 z" class="st20" enable-background="new" opacity=".3"/><g id="g585" class="st17" opacity=".15"><path id="path583" fill="#eee" d="m 303.4,68.2 c 2.5,6.5 5.8,12.6 9.6,18.4 3.8,5.8 8.1,11.2 12.7,16.4 9.2,10.3 19.6,19.6 30.6,28 11,8.4 22.7,15.9 34.9,22.3 12.2,6.4 25.1,11.9 38.5,15 h -0.4 c 5.4,-1.8 10.4,-4.9 15.1,-8.3 4.6,-3.5 9,-7.4 13.1,-11.5 4.1,-4.1 8.1,-8.4 11.9,-12.8 3.8,-4.4 7.5,-9 10.9,-13.7 l 0.1,0.1 c -3.4,4.8 -7,9.4 -10.7,13.9 -3.7,4.5 -7.6,8.8 -11.8,13 -4.1,4.1 -8.4,8.1 -13.1,11.6 -4.7,3.5 -9.7,6.7 -15.2,8.6 v 0 0 c -13.6,-3.1 -26.5,-8.5 -38.8,-15 -12.3,-6.5 -24,-14 -35,-22.5 -11,-8.5 -21.3,-17.9 -30.5,-28.3 -4.6,-5.2 -8.8,-10.7 -12.6,-16.6 -3.7,-5.9 -7,-12.1 -9.3,-18.6 z" class="st18"/></g><g id="g595"><path id="path587" fill="none" stroke="#eee" stroke-linecap="round" stroke-linejoin="round" stroke-miterlimit="10" stroke-width="1.999" d="m 340.7,130.7 c -8.7,-7.3 -13.4,-18.6 -4.1,-24.7 7.4,-4.8 22,1.6 28.6,8.8" enable-background="new" opacity=".15"/><path id="path589" fill="#eee" d="m 372.2,108.6 c -1,-1.1 -2.6,-1.4 -3.9,-0.6 -1.7,1 -4.3,2.6 -7.4,4.6 l 3.8,3.4 -7,-1.3 c -8.7,5.8 -19.9,13.4 -26.8,17.9 -1.6,1.1 -1.9,3.3 -0.6,4.7 15.8,17.2 37.4,21.8 40.3,22.1 1.5,0.2 20.5,-18.4 23.4,-21.8 -4.6,-6.5 -10.6,-16.5 -21.8,-29 z" class="st15" enable-background="new" opacity=".15"/><g id="g593" class="st17" opacity=".15"><path id="path591" fill="#eee" d="m 392.7,139.1 c -4.5,4.6 -9,9 -13.7,13.4 -2.3,2.2 -4.7,4.4 -7.2,6.3 -0.3,0.2 -0.6,0.5 -1.1,0.6 -0.4,0 -0.8,-0.1 -1.2,-0.2 -0.8,-0.1 -1.6,-0.3 -2.3,-0.5 -1.5,-0.4 -3.1,-0.8 -4.6,-1.3 -3,-1 -6,-2.1 -8.9,-3.5 -1.5,-0.6 -2.9,-1.4 -4.3,-2.1 -1.4,-0.8 -2.8,-1.5 -4.1,-2.4 -5.4,-3.4 -10.5,-7.4 -14.8,-12.1 l 0.1,-0.1 c 1.2,1.1 2.3,2.2 3.5,3.2 l 1.8,1.5 c 0.6,0.5 1.2,1 1.9,1.5 1.3,0.9 2.5,1.9 3.9,2.8 0.7,0.4 1.3,0.9 2,1.3 l 2,1.2 c 0.7,0.4 1.4,0.8 2.1,1.2 l 2.1,1.1 c 1.4,0.7 2.8,1.4 4.3,2 2.9,1.3 5.8,2.4 8.8,3.4 1.5,0.5 3,0.9 4.5,1.3 0.8,0.2 1.5,0.4 2.3,0.5 0.2,0 0.4,0.1 0.6,0.1 h 0.3 0.1 0.1 -0.1 -0.1 v 0 h 0.1 c 0,0 0.1,-0.1 0.2,-0.1 0.1,-0.1 0.3,-0.2 0.4,-0.3 2.5,-1.8 4.8,-4.1 7.2,-6.1 2.4,-2.1 4.7,-4.3 7.1,-6.4 2.2,-2.1 4.6,-4.2 7,-6.3 z" class="st18"/></g></g></g><g id="g619"><path id="path599" fill="#eee" d="m 1890,208.3 c -25.7,19.3 -76.3,36 -113.4,34.3 0,0 -0.1,41.8 16,58.2 11.2,3.1 23.7,5.1 38.4,5.9 l 1.7,-10.1 1.8,10.3 c 46.2,2.4 102.9,-6 133.4,-25.3 -11.7,-24.7 -45.6,-56 -77.9,-73.3 z" class="st15" enable-background="new" opacity=".15"/><path id="path601" fill="#402e99" d="m 1792.5,250.2 c 21.9,-1.1 66.6,-9.4 92.5,-26.9 2.2,-1.5 5.1,-1 6.8,1 v 0 c 2.2,2.6 1.5,6.5 -1.6,8.1 -16.8,8.7 -50.6,23.3 -97.6,24.8 -1.7,0.1 -3.2,-1.2 -3.5,-2.9 v -0.1 c -0.2,-2.1 1.4,-3.9 3.4,-4 z" class="st16" enable-background="new" opacity=".3"/><path id="path603" fill="#402e99" d="m 1826.2,258.7 c 26.9,-4.6 57,-13 74.2,-26.9 11.5,7 45,39.5 48,43 -13,9.5 -47.5,17 -62,17.5 -2,-6 -19,-31 -19,-31 0,0 -16.9,3.4 -39.5,5.6 -0.1,-3.1 -0.9,-5.6 -1.7,-8.2 z" class="st16" enable-background="new" opacity=".3"/><path id="path605" fill="#402e99" d="m 1791.3,261.5 c 10,0.2 30.5,-2.5 30.5,-2.5 l 7.5,39.2 c 0,0 -22.7,-1.7 -29.2,-4.5 -5.8,-8.9 -8.8,-32.2 -8.8,-32.2 z" class="st16" enable-background="new" opacity=".3"/><g id="g609" class="st17" opacity=".15"><path id="path607" fill="#eee" d="m 1968,281.7 c -6.4,4 -13.2,7.2 -20.2,9.9 -7,2.7 -14.2,4.9 -21.4,6.8 -14.5,3.7 -29.4,6.1 -44.3,7.5 -14.9,1.4 -30,1.9 -44.9,1.3 -15,-0.7 -30,-2.3 -44.5,-6.2 v 0 0 c -3.6,-3.7 -6.2,-8.3 -8.1,-13 -2,-4.7 -3.4,-9.7 -4.5,-14.7 -1.1,-5 -1.9,-10.1 -2.4,-15.2 -0.5,-5.1 -0.9,-10.2 -0.9,-15.4 h 0.1 c 0.1,5.1 0.5,10.2 1.2,15.3 0.6,5.1 1.5,10.1 2.7,15.1 1.2,5 2.6,9.9 4.6,14.6 2,4.7 4.6,9.1 8.1,12.7 l -0.3,-0.2 c 14.4,3.8 29.4,5.4 44.3,6 14.9,0.5 29.9,0.2 44.8,-1.2 7.4,-0.7 14.9,-1.6 22.2,-2.8 7.4,-1.2 14.7,-2.6 22,-4.4 7.3,-1.8 14.4,-4 21.5,-6.5 6.7,-2.7 13.5,-5.8 20,-9.6 z" class="st18"/></g><g id="g617"><path id="path611" fill="#eee" d="m 1875,294.9 c -1,-1.8 -3.3,-2.6 -5.2,-1.9 h -0.6 c -2.1,-12.9 -9.8,-17.7 -18.9,-18 -5.9,-0.2 -14.6,4 -12.3,19 l -2.9,0.1 c -1.9,0.7 -2.8,2.7 -1.9,4.6 l 3.7,20.9 c 0.9,2.1 3.3,2.1 5.6,2.2 9.7,0.2 25.5,-0.1 33.4,-2.3 2.5,-0.7 1.9,-3.3 1.9,-5.9 0.1,-6.5 -2.8,-18.7 -2.8,-18.7 z m -17.8,16.6 c -1.1,0.2 -2.2,-0.6 -2.4,-1.8 l -0.7,-4.4 c -0.2,-1.2 0.6,-2.3 1.7,-2.5 1.1,-0.2 2.2,0.6 2.4,1.8 l 0.7,4.4 c 0.2,1.1 -0.6,2.3 -1.7,2.5 z M 1843,293.8 c -2.7,-10.8 5.1,-14.5 9,-14.4 5.9,0.2 11.4,4.8 12.5,13.8 z" class="st19" enable-background="new" opacity=".2"/><g id="g615" class="st17" opacity=".15"><path id="path613" fill="#eee" d="m 1833.4,298.6 c 0.4,1.7 0.8,3.4 1.2,5.2 0.4,1.7 0.8,3.4 1.1,5.2 l 1.1,5.2 c 0.4,1.7 0.7,3.5 1,5.2 l -0.1,-0.2 c 0.3,0.6 0.7,1 1.3,1.2 0.6,0.2 1.4,0.3 2.2,0.4 1.6,0.1 3.3,0 4.9,0 3.3,0 6.6,0 10,0 3.3,-0.1 6.6,-0.1 9.9,-0.3 1.7,-0.1 3.3,-0.2 5,-0.4 1.7,-0.2 3.3,-0.4 4.9,-0.7 v 0.1 c -3.2,0.8 -6.5,1.3 -9.9,1.6 -3.3,0.3 -6.6,0.5 -10,0.6 -3.3,0.1 -6.7,0.2 -10,0.2 -1.7,0 -3.3,0 -5,-0.1 -0.8,-0.1 -1.7,-0.1 -2.5,-0.5 -0.8,-0.3 -1.5,-0.9 -1.8,-1.7 v 0 0 z" class="st18"/></g></g></g><g id="g647"><path id="path621" fill="#eee" d="m 598.8,272.4 -16.8,8.3 14.5,-12.5 c -12.4,-22.3 -29.5,-42.7 -46.7,-51.4 -15.2,17.3 -34.3,48.5 -44.2,67.2 34.4,15.7 62.2,46.8 69.4,69 0,0 32.1,-16.4 39.7,-33.1 -1.5,-14.1 -7.4,-31.1 -15.9,-47.5 z" class="st15" enable-background="new" opacity=".15"/><path id="path623" fill="#2e3192" d="m 550.2,229.1 c -6.8,9.3 -24.2,37.5 -29.7,46.7 -0.9,1.5 -0.4,3.5 1.1,4.4 0.2,0.1 0.4,0.3 0.7,0.4 1.5,0.9 3.5,0.4 4.4,-1.1 5.4,-9 22.4,-37.3 28.9,-46.6 1.1,-1.6 0.6,-3.7 -1.1,-4.7 l -0.1,-0.1 c -1.5,-0.7 -3.3,-0.3 -4.2,1 z" class="st20" enable-background="new" opacity=".3"/><path id="path625" fill="#2e3192" d="m 559,234.5 c 0,0 -27.7,45.7 -29.7,49.7 6.4,4.2 24.3,18.5 28.2,23.2 3.4,-3.9 17.2,-19.2 17.2,-19.2 l -22,-25.2 14.5,-21 z" class="st20" enable-background="new" opacity=".3"/><path id="path627" fill="#2e3192" d="m 559.8,310.8 c 2.7,-3 27.5,-25 34,-30 6.3,11.8 11.5,32.3 11.8,37.2 -5.8,7 -27.5,21 -27.8,21.5 -4.3,-13.1 -18,-28.7 -18,-28.7 z" class="st20" enable-background="new" opacity=".3"/><g id="g631" class="st17" opacity=".15"><path id="path629" fill="#eee" d="m 574.9,353 c -2.7,-7.9 -7,-15.2 -11.9,-21.9 -4.9,-6.7 -10.5,-13 -16.5,-18.7 -6,-5.8 -12.5,-11.1 -19.3,-15.8 -6.9,-4.7 -14.1,-9 -21.7,-12.5 V 284 l 5.7,2.6 c 1.9,0.9 3.7,1.9 5.6,2.8 0.9,0.5 1.8,1 2.7,1.5 l 2.7,1.6 c 1.8,1 3.6,2.2 5.3,3.4 7,4.7 13.5,10 19.6,15.7 6,5.9 11.6,12.1 16.5,19 2.4,3.5 4.6,7 6.6,10.7 l 1.4,2.8 1.2,2.9 0.6,1.4 c 0.2,0.5 0.3,1 0.5,1.5 z" class="st18"/></g><path id="path633" fill="#eee" d="m 587.7,226.1 -24.6,29.5 c -2,1.9 -2.2,5.1 -0.4,7.2 l 13.5,17.4 c 1.5,1.7 4,1.9 5.8,0.5 l 27.9,-24.8 c 1.8,-1.4 2.1,-4 0.8,-5.8 L 594,226.7 c -1.5,-2.1 -4.5,-2.3 -6.3,-0.6 z" class="st19" enable-background="new" opacity=".2"/><g id="g637" class="st17" opacity=".15"><path id="path635" fill="#eee" d="m 562.7,262.8 c 1.2,1.4 2.4,2.8 3.6,4.2 1.2,1.4 2.4,2.8 3.5,4.2 l 3.5,4.3 c 1.2,1.4 2.3,2.9 3.5,4.3 v 0 c 1,1.1 2.7,1.4 4,0.7 0.6,-0.3 1.3,-1 1.9,-1.6 l 2,-1.8 8.2,-7.2 c 2.7,-2.4 5.6,-4.7 8.3,-7.1 1.4,-1.2 2.8,-2.3 4.2,-3.5 1.4,-1.2 2.8,-2.3 4.3,-3.4 l 0.1,0.1 -16.3,14.6 -8.2,7.3 -2,1.8 c -0.7,0.6 -1.3,1.3 -2.2,1.7 -1.7,0.9 -3.9,0.4 -5.1,-1 v 0 0 z" class="st18"/></g><g id="g641" class="st17" opacity=".15"><path id="path639" fill="#eee" d="m 564.2,258.7 c 2.3,-0.2 4.7,-0.3 7,-0.4 l 7,-0.2 c 2.3,-0.1 4.7,0 7,0 h 3.4 c 0.8,0 1.5,-0.4 2,-1.1 0.2,-0.3 0.4,-0.7 0.5,-1 0,-0.2 0.1,-0.4 0.1,-0.6 0,-0.2 0,-0.6 0,-0.8 0,-1.2 -0.1,-2.3 -0.1,-3.5 0,-2.3 -0.2,-4.7 -0.1,-7 v -7 c 0.1,-2.3 0.1,-4.7 0.3,-7 h 0.1 l 0.7,14 0.4,7 0.2,3.5 c 0,0.6 0.1,1.2 0,1.8 -0.1,0.6 -0.4,1.2 -0.7,1.6 -0.7,1 -1.9,1.6 -3.1,1.6 -1.2,0 -2.3,-0.1 -3.5,-0.1 l -7,-0.2 -14,-0.4 z" class="st18"/></g><g id="g645" opacity=".3"><path id="path643" fill="#28348a" d="m 564.2,258.7 14,0.4 7,0.2 c 1.2,0 2.3,0.1 3.5,0.1 1.1,0 2.2,-0.6 2.8,-1.5 0.3,-0.4 0.6,-1 0.7,-1.5 0.1,-0.5 0.1,-1.1 0,-1.7 l -0.2,-3.5 -0.3,-7 -0.7,-14 h 0.2 c 0.5,2.3 0.8,4.6 1.2,6.9 0.3,2.3 0.6,4.6 0.8,7 0.3,2.3 0.4,4.6 0.6,7 0.1,1.2 0.2,2.3 0.2,3.5 0,0.3 0,0.5 0,0.9 0,0.4 0,0.8 -0.1,1.3 -0.2,0.8 -0.5,1.6 -1,2.3 -1,1.4 -2.7,2.2 -4.4,2.2 -0.5,0 -0.7,0 -1,0 h -0.9 c -0.6,0 -1.2,0 -1.7,-0.1 -2.3,-0.2 -4.7,-0.3 -7,-0.5 -2.3,-0.2 -4.7,-0.4 -7,-0.7 -2.3,-0.4 -4.7,-0.6 -7,-1 z"/></g></g><g id="g667"><path id="path649" fill="#eee" d="m 1595.1,157.6 -56.4,-11.2 c -3.4,-0.8 -6.8,1.1 -7.8,4.5 l -9.7,29.2 c -0.7,2.7 0.8,5.5 3.4,6.3 l 53.8,17.7 c 2.7,0.9 5.6,-0.5 6.5,-3.1 l 13.8,-36.5 c 1.1,-2.9 -0.6,-6.1 -3.6,-6.9 z m -48.8,22.1 6.2,-17.3 14,14.7 z" class="st19" enable-background="new" opacity=".2"/><g id="g653" class="st17" opacity=".15"><path id="path651" fill="#eee" d="m 1598.7,164.6 -9.1,24.3 -4.6,12.1 c -0.7,2.1 -2.8,3.6 -5,3.6 -1.1,0 -2.1,-0.4 -3.2,-0.8 l -3.1,-1 -49.2,-16.3 v -0.1 l 12.4,3.7 12.4,3.8 c 8.2,2.6 16.4,5.3 24.7,7.9 l 3.1,1 1.5,0.5 c 0.4,0.1 0.9,0.2 1.3,0.2 1.8,0 3.6,-1.2 4.2,-2.9 1.6,-4 3.1,-8.1 4.7,-12.1 l 4.8,-12 z" class="st18"/></g><path id="path655" fill="#eee" d="m 1706.7,103.2 c -39,-11.1 -98.6,-6.9 -146.3,3.6 3.2,37.1 -1.6,65.5 -11.8,87.7 l 28.5,9.3 -31.1,-3.9 c -6.5,12.4 -14.8,22.9 -24.5,31.8 0,0 51.5,35.6 83.3,35.9 49.1,-28.5 104.4,-107.9 101.9,-164.4 z" class="st15" enable-background="new" opacity=".15"/><path id="path657" fill="#402e99" d="m 1576.5,115 c 24.1,-2.6 73.6,-5 105.1,-1.2 4.8,0.6 8.2,4.9 7.5,9.7 0,0.1 0,0.2 0,0.3 -0.6,4.8 -5.1,8.2 -9.9,7.4 -22.3,-3.6 -70.5,-7.2 -103.9,-5.1 -2,0.1 -3.5,-1.3 -4.1,-3.2 0,-0.1 -0.1,0.1 -0.2,-0.4 -0.7,-3.7 1.9,-7.1 5.5,-7.5 z" class="st16" enable-background="new" opacity=".3"/><path id="path659" fill="#402e99" d="m 1683.6,141.7 c -17.5,-4.3 -77.1,-9.7 -111.5,-10.3 0,5.3 -0.7,9 -1.3,13 9.2,1.1 28.2,4.1 46.7,7.4 -4.9,13.7 -14.9,37.4 -17.3,42.2 2,1 42,14.3 45.6,15.7 14.2,-15.4 25.2,-36.9 29.3,-46.7 0.1,0 0.1,0 0.2,0.1 4.1,-8.1 5.6,-13.4 8.3,-21.4 z" class="st16" enable-background="new" opacity=".3"/><path id="path661" fill="#402e99" d="m 1554.5,207.3 c 9,3.8 18.5,7.9 32.4,12.7 2.6,-4.7 8.6,-13.1 11,-19 14.4,5 39,13.4 44.2,15.6 -5,5.7 -31.3,33.7 -39.7,37.7 -13.7,-1 -60.3,-24.3 -62.6,-26 1.7,-1.7 14.7,-21 14.7,-21 z" class="st16" enable-background="new" opacity=".3"/><g id="g665" class="st17" opacity=".15"><path id="path663" fill="#eee" d="m 1706.7,103.2 c 0.3,8.4 -0.5,16.7 -2.2,24.9 -1.7,8.2 -4.1,16.2 -7,24.1 -5.9,15.7 -13.8,30.5 -22.9,44.6 -9.1,14 -19.5,27.2 -31.1,39.3 -5.8,6 -11.9,11.8 -18.3,17.1 -6.4,5.3 -13.3,10.2 -20.5,14.4 v 0 0 c -3.8,0 -7.6,-0.6 -11.4,-1.4 -3.7,-0.8 -7.4,-1.8 -11.1,-3 -7.3,-2.4 -14.3,-5.4 -21.2,-8.7 -6.9,-3.3 -13.6,-6.9 -20.2,-10.7 -6.6,-3.8 -13.1,-7.8 -19.4,-12.1 l 0.1,-0.1 c 6.4,4.2 12.9,8.1 19.6,11.9 6.6,3.7 13.4,7.2 20.3,10.5 6.9,3.3 13.9,6.2 21.2,8.6 3.6,1.2 7.3,2.2 11,2.9 3.7,0.8 7.5,1.3 11.2,1.3 l -0.3,0.1 c 7.2,-4.2 13.9,-9.1 20.3,-14.5 6.4,-5.3 12.4,-11.1 18.2,-17.1 11.5,-12 22,-25.1 31.1,-39.1 9.1,-14 17,-28.7 23,-44.3 0.7,-1.9 1.5,-3.9 2.1,-5.9 0.7,-2 1.3,-3.9 1.9,-6 l 0.9,-3 c 0.3,-1 0.5,-2 0.8,-3 l 0.8,-3 0.7,-3.1 c 1.6,-8 2.6,-16.3 2.4,-24.7 z" class="st18"/></g></g></g><g id="g679"><path id="path671" d="M803.1,522.2c-22.7-1.7-39,4-63.3,20c-38.3-12.7-45-32.9-45-32.9 c30.3-26.1,91.1-18.4,105.2-13.5C799.9,507.7,803.1,522.2,803.1,522.2z" class="st24"/><g id="g677"><path id="path673" d="M1193.3,494c16.9,0.2,35.2-4.9,56.3-20.5c0.8-0.6,1.9-0.5,2.5,0.3c6.2,8.1,21.2,25.6,27.6,23 c1.4-0.6,2.9,0.6,2.5,2.1c-3.2,13.5-18.8,18.7-32.1,21c-16.8,2.9-34.3,3.1-47.3,0.3c-0.3-0.1-0.7-0.2-0.9-0.5 c-6.9-6.7-9.6-18.7-10.5-23.6C1191.2,495,1192.1,494,1193.3,494z" class="st24"/><path id="path675" d="M1232.4,522.4c22.3-1.4,39.1-9.2,47.8-29C1287.1,500.5,1279.5,519.7,1232.4,522.4z" class="st0"/></g></g></svg>