<svg xmlns="http://www.w3.org/2000/svg" xmlns:xlink="http://www.w3.org/1999/xlink" viewBox="0 0 1921.44 577.03"><defs><style>.cls-1{fill:#fff;}.cls-2{fill:url(#linear-gradient);}</style><linearGradient id="linear-gradient" x1="575.26" y1="-368.63" x2="309.08" y2="-862.97" gradientTransform="translate(539.06 816.36)" gradientUnits="userSpaceOnUse"><stop offset="0" stop-color="#402e99"/><stop offset="1" stop-color="#2e3192"/></linearGradient></defs><title>Asset 2</title><g id="Layer_2" data-name="Layer 2"><g id="Layer_1-2" data-name="Layer 1"><g id="SVGID"><g id="g473"><path id="path471" class="cls-1" d="M.84,2.23v323.4c72.4,80.9,403.2-55.9,297.7,52.5-81.8,84-12.7,206.7,216.1,116.9,211.8-83.2,402.8,14.6,443.5,82h26.5c4.1-105,84.7-128.8,247.7-74,128.5,43.2,284.5-47.3,342.7-109.6,45.1-48.2,82.8-86.6,116.4-48.8,53,59.7,152.5,56.3,230,6.5V2.23Z"/></g></g><rect id="rect217" class="cls-1" x="0.84" y="2.23" width="1920" height="574"/><g id="g464"><path id="path369" class="cls-2" d="M0,0V323.4c72.4,80.9,287.24-63.29,181.75,45.1h0c9.05,16.07,30.3-7.27,64,18.66,12,9.26,2,38.31,19.26,46.52,13.25,6.31,56.87,3.72,72.3,9.48,16.22,6.05,8,65.05,19.25,50.19,60.24-79.25,108.7-35.87,157.18-.61,206.66-77.82,309.56-71.79,359-5,1.93,2.61,29.79,12.44,45.93,10.31a34.48,34.48,0,0,1,36,20.11l11.81,26.43a7.54,7.54,0,0,0,11.93,2.53c10.82-9.71,25.24-30.88,26.09-37.7,11.46-91.52,72.5-60.62,227-8.67,66.86,22.48,99.48-58.91,163.58-86,59.09-25,151.2,6.3,179.12-23.58,45.1-48.2,82.8-86.6,116.4-48.8,28.85,32.5,60.89-33.86,106.26-36.07,38-1.84,88.43,65.26,123.74,42.57V0Z"/></g></g></g></svg>