<svg xmlns="http://www.w3.org/2000/svg" viewBox="0 0 287.52 227.78"><defs><style>.cls-1{fill:#fafafa;}.cls-2{fill:#2e3192;}.cls-3{fill:#0094a3;}.cls-4{fill:#c1b308;}.cls-5{fill:#ff0606;}.cls-6{fill:none;stroke-width:2px;}.cls-6,.cls-7{stroke:#455a64;stroke-miterlimit:10;}.cls-7{fill:#455a64;}.cls-8{fill:#e0e0e0;}</style></defs><title>Asset 1</title><g id="Layer_2" data-name="Layer 2"><g id="Windows"><g id="Window"><g id="Window-2" data-name="Window"><path class="cls-1" d="M287.47,6.05a2.23,2.23,0,0,0-.15-.59s0-.07,0-.12a2,2,0,0,0-.19-.59,4,4,0,0,0-.52-.94,1.71,1.71,0,0,0-.28-.42,2.21,2.21,0,0,0-.25-.3,5.34,5.34,0,0,0-.57-.6l-.06-.06a7,7,0,0,0-.74-.58A10.22,10.22,0,0,0,278.86.1L8.66,0C3.89,0,0,3,0,6.7V218.56s0,0,0,.06v1.26c0,1.58,1.32,3.37,3.12,4.72l.36.28.46.35a7.71,7.71,0,0,0,.74.46,9.23,9.23,0,0,0,1.11.52,7.83,7.83,0,0,0,2.86.56h270.2c4.77,0,8.66-3,8.66-6.7V6.8C287.52,6.55,287.49,6.29,287.47,6.05Z"/><path class="cls-2" d="M287.5,6.75c0-3.67-3.89-6.65-8.64-6.65L8.66,0C3.88,0,0,3,0,6.7v19l287.49.12Z"/><path class="cls-3" d="M237.32,7.45a5,5,0,0,0-4.89,5,4.89,4.89,0,1,0,9.78,0A5,5,0,0,0,237.32,7.45Z"/><path class="cls-4" d="M254.92,7.43A5,5,0,0,0,250,12.48a4.89,4.89,0,1,0,9.78,0A5,5,0,0,0,254.92,7.43Z"/><path class="cls-5" d="M272.53,7.42a5,5,0,0,0-4.89,5,4.89,4.89,0,1,0,9.78,0A5,5,0,0,0,272.53,7.42Z"/></g></g><rect class="cls-6" x="16.94" y="42.99" width="154" height="77"/><polyline class="cls-6" points="16.94 81.49 44.44 64.49 83.44 81.49 118.44 54.49 170.94 81.49"/><ellipse class="cls-6" cx="77.44" cy="57.99" rx="7" ry="6.5"/><path class="cls-7" d="M180.19,42.74l95.71-.13a.9.9,0,1,1,0,1.78l-95.71.14a.9.9,0,1,1,0-1.79Z"/><path class="cls-7" d="M179.8,49.7l59.49-.09a.64.64,0,1,1,0,1.28L179.8,51a.65.65,0,0,1,0-1.29Z"/><path class="cls-7" d="M216.8,55.7l59.49-.09a.64.64,0,1,1,0,1.28L216.8,57a.65.65,0,0,1,0-1.29Z"/><path class="cls-7" d="M243.52,49.64l33.06-.08c.2,0,.36.23.36.52s-.16.53-.36.53l-33.06.08c-.2,0-.36-.24-.36-.53S243.32,49.64,243.52,49.64Z"/><path class="cls-7" d="M179.8,62.7l59.49-.09a.64.64,0,1,1,0,1.28L179.8,64a.65.65,0,0,1,0-1.29Z"/><path class="cls-7" d="M179.5,55.79l31.1-.09c.19,0,.34.26.34.6s-.15.6-.34.6L179.5,57c-.19,0-.34-.27-.34-.6S179.31,55.79,179.5,55.79Z"/><path class="cls-7" d="M243.52,62.64l33.06-.08c.2,0,.36.23.36.52s-.16.53-.36.53l-33.06.08c-.2,0-.36-.24-.36-.53S243.32,62.64,243.52,62.64Z"/><path class="cls-7" d="M275.9,89.85,180.19,90a.9.9,0,1,1,0-1.79l95.71-.13a.9.9,0,1,1,0,1.78Z"/><path class="cls-7" d="M239.29,76.89,179.8,77a.65.65,0,0,1,0-1.29l59.49-.09a.64.64,0,1,1,0,1.28Z"/><path class="cls-7" d="M212.58,83,179.52,83c-.2,0-.36-.23-.36-.52s.16-.52.36-.52l33.06-.08c.2,0,.36.23.36.52S212.78,83,212.58,83Z"/><path class="cls-7" d="M276.29,69.89,216.8,70a.65.65,0,0,1,0-1.29l59.49-.09a.64.64,0,1,1,0,1.28Z"/><path class="cls-7" d="M276.6,76.81l-31.1.09c-.19,0-.34-.27-.34-.6s.15-.6.34-.6l31.1-.09c.19,0,.34.26.34.6S276.79,76.81,276.6,76.81Z"/><path class="cls-7" d="M212.58,70,179.52,70c-.2,0-.36-.23-.36-.52s.16-.52.36-.52l33.06-.08c.2,0,.36.23.36.52S212.78,70,212.58,70Z"/><path class="cls-7" d="M180.19,95.74l95.71-.13a.9.9,0,1,1,0,1.78l-95.71.14a.9.9,0,1,1,0-1.79Z"/><path class="cls-7" d="M179.8,102.7l59.49-.09a.64.64,0,1,1,0,1.28l-59.49.1a.65.65,0,0,1,0-1.29Z"/><path class="cls-7" d="M216.8,108.7l59.49-.09a.64.64,0,1,1,0,1.28l-59.49.1a.65.65,0,0,1,0-1.29Z"/><path class="cls-7" d="M243.52,102.64l33.06-.08c.2,0,.36.23.36.52s-.16.53-.36.53l-33.06.08c-.2,0-.36-.24-.36-.53S243.32,102.64,243.52,102.64Z"/><path class="cls-7" d="M179.8,115.7l59.49-.09a.64.64,0,1,1,0,1.28l-59.49.1a.65.65,0,0,1,0-1.29Z"/><path class="cls-7" d="M179.5,108.79l31.1-.09c.19,0,.34.26.34.6s-.15.6-.34.6l-31.1.09c-.19,0-.34-.27-.34-.6S179.31,108.79,179.5,108.79Z"/><path class="cls-7" d="M243.52,115.64l33.06-.08c.2,0,.36.23.36.52s-.16.53-.36.53l-33.06.08c-.2,0-.36-.24-.36-.53S243.32,115.64,243.52,115.64Z"/><path class="cls-8" d="M26.16,134.21l241.14,0c4.77,0,8.64,1,8.64,2.24v1c0,1.23-3.87,2.23-8.65,2.23h-242c-4.78,0-8.54-1-8.42-2.21l.43-1.09C17.42,135.2,21.39,134.21,26.16,134.21Z"/><path class="cls-8" d="M26.16,145.61l241.14,0c4.77,0,8.64,1,8.64,2.23v1c0,1.23-3.87,2.23-8.65,2.23h-242c-4.78,0-8.54-1-8.42-2.21l.43-1.1C17.42,146.59,21.39,145.61,26.16,145.61Z"/><path class="cls-8" d="M26.16,157l241.14,0c4.77,0,8.64,1,8.64,2.24v1c0,1.24-3.87,2.24-8.65,2.23h-242c-4.78,0-8.54-1-8.42-2.21l.43-1.09C17.42,158,21.39,157,26.16,157Z"/><path class="cls-8" d="M26.16,169.21l241.14,0c4.77,0,8.64,1,8.64,2.24v1c0,1.23-3.87,2.23-8.65,2.23h-242c-4.78,0-8.54-1-8.42-2.21l.43-1.09C17.42,170.2,21.39,169.21,26.16,169.21Z"/><path class="cls-8" d="M26.16,180.61l241.14,0c4.77,0,8.64,1,8.64,2.23v1c0,1.23-3.87,2.23-8.65,2.23h-242c-4.78,0-8.54-1-8.42-2.21l.43-1.1C17.42,181.59,21.39,180.61,26.16,180.61Z"/><path class="cls-8" d="M26.16,192l241.14,0c4.77,0,8.64,1,8.64,2.24v1c0,1.24-3.87,2.24-8.65,2.23h-242c-4.78,0-8.54-1-8.42-2.21l.43-1.09C17.42,193,21.39,192,26.16,192Z"/><path class="cls-2" d="M0,222.6c0,2.82,3.88,5.1,8.64,5.1l270.2.08c4.78,0,8.65-2.31,8.65-5.14V208.08L0,208Z"/><path class="cls-7" d="M276.3,82.89,216.8,83a.51.51,0,1,1,0-1l59.5-.08a.51.51,0,1,1,0,1Z"/></g></g></svg>